<svg id="Capa_1" enable-background="new 0 0 512 512" height="512" viewBox="0 0 512 512" width="512" xmlns="http://www.w3.org/2000/svg"><g><g><path d="m464.684 137.772-97.393 60.912-54.421 90.901c-9.989 9.989-9.989 26.184 0 36.173s26.184 9.989 36.173 0c5.552-5.552 8.013-13.021 7.393-20.277l108.248-108.248c16.42-16.418 16.42-43.041 0-59.461z" fill="#b2b0bc"/><path d="m68.4 414.147-54.8 54.799c-8.133 8.133-8.133 21.32 0 29.454s21.32 8.133 29.454 0l54.799-54.8z" fill="#423e4f"/><path d="m139.958 372.042-67.345-2.255-34.791 74.937 29.454 29.454 74.937-34.791z" fill="#a4e6ff"/><path d="m139.958 372.042-19.352-.648 1.607 47.993-74.937 34.791 20 20 74.937-34.791z" fill="#5bd6fd"/><path d="m490.818 45.577-24.396-24.396c-18.242-18.242-47.818-18.242-66.061 0l-26.134 26.134 25.507 64.95 64.95 25.507 26.134-26.134c18.243-18.242 18.243-47.818 0-66.061z" fill="#5c586f"/><path d="m490.818 45.577-20-20c18.242 18.242 18.242 47.818 0 66.061l-26.134 26.134-50.589-19.867 5.64 14.361 64.95 25.506 26.134-26.134c18.242-18.242 18.242-47.818-.001-66.061z" fill="#423e4f"/><path d="m82.014 294.054h173.434v98.43h-173.434z" fill="#5bd6fd" transform="matrix(.707 -.707 .707 .707 -193.307 219.852)"/><path d="m106.815 353.927h173.434v28.284h-173.434z" fill="#00c4fc" transform="matrix(.707 -.707 .707 .707 -203.58 244.652)"/><path d="m374.228 47.316-197.833 197.833c-5.759 5.759-5.759 15.097 0 20.856l69.601 69.601c5.759 5.759 15.097 5.759 20.856 0l197.833-197.833z" fill="#a4e6ff"/><path d="m444.684 117.772-197.833 197.833c-5.759 5.759-15.097 5.759-20.856 0l20 20c5.759 5.759 15.097 5.759 20.856 0l197.833-197.833z" fill="#5bd6fd"/><g><g fill="#ffaacb"><ellipse cx="262.635" cy="266.028" rx="31.842" ry="25.358" transform="matrix(.709 -.706 .706 .709 -111.18 262.81)"/><ellipse cx="384.946" cy="144.251" rx="31.842" ry="25.358" transform="matrix(.709 -.706 .706 .709 10.376 313.629)"/></g></g></g><g><path d="m257.331 244.621c2.928 2.929 7.677 2.929 10.607 0 2.929-2.929 2.929-7.678 0-10.607l-9.15-9.15c-2.929-2.929-7.678-2.929-10.607 0s-2.929 7.678 0 10.607z"/><path d="m352.57 149.382c2.928 2.928 7.677 2.928 10.607 0 2.929-2.929 2.929-7.678 0-10.607l-9.15-9.151c-2.928-2.929-7.678-2.929-10.607 0s-2.929 7.678 0 10.607z"/><path d="m321.153 224.364c4.248-4.248 6.466-9.755 6.704-15.331 5.796-.243 11.215-2.587 15.341-6.715 9.002-9.002 9.002-23.65 0-32.653-2.929-2.929-7.678-2.929-10.607 0s-2.929 7.678 0 10.607c3.153 3.154 3.153 8.285 0 11.439-3.16 3.16-8.277 3.162-11.439 0-4.703-4.706-12.804-1.377-12.804 5.303 0 1.99.781 3.887 2.197 5.303 3.153 3.154 3.153 8.285 0 11.439-3.161 3.161-8.277 3.162-11.439 0-2.928-2.929-7.678-2.929-10.607 0s-2.929 7.678 0 10.607c9.024 9.025 23.63 9.026 32.654.001z"/><path d="m48.366 503.696 23.283-23.283 73.735-34.233c.846-.404 1.551-.905 2.145-1.499l99.415-99.414c8.311 3.932 18.409 2.448 25.228-4.372l26.448-26.448c1.267 6.088 4.251 11.886 8.966 16.601 20.564 20.566 55.747 6.275 56.455-22.558l105.97-105.97c9.359-9.358 14.513-21.801 14.513-35.035 0-10.7-3.372-20.88-9.608-29.334l21.231-21.231c21.137-21.138 21.137-55.532 0-76.67l-24.397-24.396c-21.138-21.138-55.532-21.138-76.67 0l-223.975 223.975c-6.812 6.811-8.25 16.968-4.364 25.221l-45.884 45.884c-2.929 2.929-2.929 7.678 0 10.607s7.678 2.929 10.607 0l44.944-44.944 58.996 58.996-93.179 93.179-58.997-58.996 27.021-27.021c2.929-2.929 2.929-7.678 0-10.607s-7.678-2.929-10.607 0l-32.324 32.324c-.635.635-1.166 1.428-1.5 2.145l-34.232 73.735-23.282 23.282c-11.071 11.07-11.073 28.989 0 40.062 11.071 11.071 28.99 11.072 40.062 0zm357.321-477.236c15.29-15.289 40.167-15.289 55.456 0l24.397 24.396c15.289 15.289 15.289 40.167 0 55.456l-20.832 20.832-79.853-79.853zm-223.975 223.976 192.536-192.537 79.853 79.853-34.737 34.736c-2.929 2.929-2.929 7.678 0 10.607 2.915 2.915 7.668 2.94 10.607 0l34.163-34.162c3.509 5.492 5.389 11.877 5.389 18.551 0 9.228-3.594 17.904-10.119 24.429l-108.251 108.251c-1.564 1.564-2.358 3.738-2.169 5.942 1.438 16.838-18.985 26.142-30.791 14.335-7.049-7.049-7.049-18.519 0-25.567l90.774-90.774c2.911-2.911 2.949-7.659 0-10.607-2.934-2.935-7.684-2.924-10.607 0l-136.796 136.796c-2.831 2.832-7.415 2.833-10.248 0l-69.603-69.603c-2.834-2.834-2.833-7.417-.001-10.25zm-106.805 132.23 54.428 54.428-60.453 28.066-22.041-22.041zm-55.996 110.424c-5.21-5.211-5.209-13.638 0-18.848l18.919-18.919 18.848 18.848-18.92 18.92c-5.196 5.195-13.651 5.195-18.847-.001z"/></g></g></svg>